<?xml version="1.0" encoding="UTF-8" standalone="no"?>
<svg xmlns="http://www.w3.org/2000/svg" width="296.82474" height="629.80878">
  <path fill="#007f3f" d="M147.22436 620.40192c-.096-6.57534.85293-12.60814 2.11046-13.40599 2.97907-1.88979 3.20406 17.20103.25778 21.87904-1.5709 2.49505-2.24186.0956-2.36805-8.47376l.00006-.0001zM105.56154 606.36c1.88568-1.25026 5.82711-2.31718 8.75877-2.37106 8.809-.16131 28.15241-9.66813 44.41279-21.82591 16.59627-12.40905 25.31894-26.47523 27.98209-45.12426 2.91733-20.42868-7.17237-40.68619-22.60274-45.38387-3.95388-1.20366-4.65957-3.42193-4.7964-15.07482-.18922-16.05498.71955-16.40887 17.73922-6.91328 15.64538 8.72945 29.71878 26.01451 33.01564 40.55166 2.92333 12.88897.82581 33.99206-4.75236 47.80224-7.40423 18.33174-32.91668 36.55843-65.15244 46.54588-13.75759 4.26258-40.41078 5.64538-34.60404 1.79513l.00005.00003zm40.10483-37.90311c-.76124-6.6422-2.22679-35.90704-3.25663-65.03368-1.02985-29.12664-2.71034-68.82079-3.7339-88.21007l-1.86158-35.25305 9.90425.60701 9.90433.60706-.27537 19.5822c-.15151 10.7703-1.07777 35.14006-2.05674 54.15494-.97966 19.01448-2.20922 55.0494-2.73087 80.07643-.93236 44.69727-3.15817 57.3388-5.89337 33.46876l.00006-.0001zm-40.44815-85.25648c-37.83112-7.77141-57.89555-25.78058-62.85943-56.42009-2.15816-13.3174 5.0107-36.58031 15.16015-49.19142 15.01633-18.66112 43.21411-29.93079 82.96359-33.15795 33.80221-2.74387 56.71116-10.22539 69.66511-22.74935 6.20948-6.00351 11.64695-18.24242 11.48417-25.84932-.17107-7.9906-8.77-24.73339-15.90347-30.96467-6.72383-5.87344-32.16083-18.63846-37.03277-18.58406-1.99017.0222-2.9302-4.33148-3.0452-14.10387l-.16666-14.13556 12.83665 1.35555c39.68356 4.19063 74.44444 28.05522 82.55015 56.67179 10.13024 35.76462-13.57317 72.22839-56.81984 87.40943-9.28074 3.25763-27.33661 6.5314-47.8197 8.66968-25.24838 2.63602-35.70534 4.75656-44.92372 9.1086-21.86791 10.32422-33.86433 33.76571-25.41113 49.65145 6.7683 12.71901 19.42313 19.89494 47.28183 26.81065 1.90782.47345 2.94331 5.43092 3.05147 14.60857l.16383 13.89039-8.63894-.0825c-4.7513-.0453-14.89259-1.36578-22.53734-2.93682l.00019.001zm33.03752-147.1638c-1.53099-4.72042-4.1937-62.616-6.89099-149.77896l-2.47385-80.01491 19.1382-.22533 19.1382-.22533-1.05666 27.07803c-4.58669 117.45192-6.89268 170.25794-8.13996 186.10209l-1.44942 18.44479-8.64671.81797c-5.63547.53311-8.98647-.22983-9.62234-2.19009l-.00006.0001zm-36.91577-88.17454c-40.47589-5.09873-71.935311-21.13711-88.653344-45.19739-3.2895137-4.73415-7.7680557-16.23698-9.9513237-25.56177-6.731529-28.74239-1.282983-48.78358 19.0671137-70.12488C49.32928 78.110747 76.06018 71.294216 176.37927 67.558405c24.05994-.895174 45.60117-2.236761 47.86814-2.98115 2.26705-.744115 10.58759 1.647565 18.49021 5.314672 7.90251 3.667082 17.74515 7.346744 21.87191 8.17655 10.71607 2.155172 9.49752 7.215174-2.19588 9.125039-14.83639 2.42297-17.47397 4.966669-9.42759 9.0932l6.69566 3.433402-6.71874 2.668132c-12.43564 4.93853-25.45599 5.49784-45.11993 1.9384-26.01688-4.709169-86.8417-6.248977-104.77144-2.65215-25.48529 5.11218-50.98735 22.236-59.50591 39.95415-7.01597 14.59347-.0462 39.57549 14.90169 53.41316 11.85161 10.97189 32.38379 18.53248 52.36122 19.28102l17.95505.67242-.47818 16.45762-.47817 16.45762-10.36146.33785c-5.69886.18579-12.95668.0109-16.12892-.38878l.00007-.00012zM239.86482 79.598676c-.0149-1.266732-1.52047-2.285568-3.34585-2.264034-1.82537.02151-3.94705 1.083008-4.71502 2.358928-.76744 1.27623.73768 2.294772 3.34586 2.264026 2.60814-.03068 4.72993-1.092161 4.71502-2.358929zm22.43774 12.90784c.59834-.997162 7.51455-1.651234 15.36859-1.453877 7.85412.197408 15.36753-.33133 16.69754-1.174623 1.32946-.843394 2.43467-.05933 2.45586 1.742511.0305 2.59337-3.67604 3.215941-17.78569 2.987416-9.80347-.158711-17.33456-1.104369-16.73618-2.101624l.00003.000137zM127.7066 54.463852c-1.14201-5.715262-3.80703-9.337894-9.30292-12.645673-17.54533-10.560012-10.04601-32.3287874 13.4471-39.0301014 20.60519-5.878368 37.26982-2.39785698 47.13296 9.8406674 7.53975 9.356324 6.45865 19.049563-3.44857 30.902583-4.67625 5.595406-8.16331 12.042548-7.74866 14.326805.67815 3.735017-1.22029 4.176238-18.86255 4.383706l-19.61668.230601-1.60052-8.00989.00005.000031z"/>
</svg>